<?xml version="1.0" encoding="utf-8"?>
<!-- Generator: Adobe Illustrator 25.4.1, SVG Export Plug-In . SVG Version: 6.00 Build 0)  -->
<svg version="1.1" id="Calque_1" xmlns="http://www.w3.org/2000/svg" xmlns:xlink="http://www.w3.org/1999/xlink" x="0px" y="0px"
	 viewBox="0 0 469.66 359.55" style="enable-background:new 0 0 469.66 359.55;" xml:space="preserve">
<style type="text/css">
	.st0{fill:#020203;}
	.st1{fill:#020203;stroke:#FFFFFF;stroke-miterlimit:10;}
</style>
<g>
	<rect x="23.44" y="330.36" class="st0" width="438" height="14"/>
	<rect x="291.44" y="69.36" class="st0" width="13" height="261"/>
	<polygon class="st0" points="174.22,340.57 159.73,340.3 294.87,69.36 304.44,74.12 	"/>
	<polygon class="st0" points="421.94,340.57 438.79,340.57 301,69.36 291.44,74.12 	"/>
	<g>
		
			<rect x="246.72" y="-51.26" transform="matrix(0.5031 0.8642 -0.8642 0.5031 212.9688 -168.6328)" class="st0" width="12.83" height="304.31"/>
		<polygon class="st0" points="384.93,6.21 391.1,16.8 12.4,231.99 8.23,225.51 		"/>
	</g>
	<g>
		<g>
			<polygon class="st0" points="376.98,85.8 385.47,75.07 418.77,75.07 432.89,85.8 432.89,119.68 404.93,146.22 376.98,146.22 			
				"/>
			<polygon class="st0" points="376.98,85.8 368.49,75.07 335.19,75.07 321.07,85.8 321.07,119.68 349.03,146.22 376.98,146.22 			
				"/>
		</g>
		<rect x="374.69" y="16.9" class="st0" width="4.58" height="68.89"/>
	</g>
	<circle class="st1" cx="297.94" cy="72.31" r="5.36"/>
</g>
</svg>
